<svg width="811" height="437" viewBox="0 0 811 437" fill="none" xmlns="http://www.w3.org/2000/svg">
<g clip-path="url(#clip0)">
<path opacity="0.1" d="M811 280.491C811.01 292.363 809.376 304.178 806.144 315.603C803.02 326.617 798.426 337.16 792.483 346.949C792.483 382.414 768.508 413.066 733.707 427.649C719.165 433.682 703.565 436.762 687.819 436.71H153.955C125.421 436.71 98.9789 429.023 77.2931 415.926C71.0868 412.196 65.1994 407.96 59.6908 403.262C35.5876 382.577 20.6437 353.992 20.6437 322.42C7.11623 301.62 -0.0566466 277.338 2.8095e-05 252.536C2.8095e-05 200.605 30.7599 155.951 74.8261 136.236C80.6776 133.619 86.724 131.46 92.9106 129.78C95.0987 129.185 97.3106 128.652 99.546 128.18C105.505 126.912 111.55 126.084 117.63 125.702C119.828 125.565 122.038 125.487 124.259 125.468H125.478C127.931 125.468 130.363 125.553 132.78 125.695L133.574 124.35C134.548 122.727 135.545 121.12 136.566 119.529C138.409 116.632 140.342 113.776 142.365 110.964C144.482 107.995 146.691 105.074 148.993 102.2L149.581 101.492C150.886 99.8685 152.218 98.2639 153.58 96.6782C157.833 91.7277 162.323 86.9257 167.049 82.2725C218.169 32.2382 298.255 0.0288086 388.287 0.0288086C458.343 0.0288086 522.379 19.5314 571.429 51.755C590.011 41.2544 611.002 35.7446 632.353 35.7635C701.643 35.7635 757.831 92.6574 757.831 162.838C757.821 167.279 757.584 171.716 757.122 176.133C773.825 187.939 787.438 203.584 796.815 221.746C806.192 239.909 811.057 260.057 811 280.491V280.491Z" fill="#A1E042"/>
<path opacity="0.2" d="M167.063 82.2437V96.6494H153.594C157.814 91.7035 162.304 86.9016 167.063 82.2437Z" fill="#A1E042"/>
<path opacity="0.2" d="M191.783 78.5909H173.699V96.6494H191.783V78.5909Z" fill="#A1E042"/>
<path opacity="0.2" d="M216.496 78.5909H198.411V96.6494H216.496V78.5909Z" fill="#A1E042"/>
<path opacity="0.2" d="M241.216 78.5909H223.131V96.6494H241.216V78.5909Z" fill="#A1E042"/>
<path opacity="0.2" d="M265.929 78.5909H247.844V96.6494H265.929V78.5909Z" fill="#A1E042"/>
<path opacity="0.2" d="M290.648 78.5909H272.564V96.6494H290.648V78.5909Z" fill="#A1E042"/>
<path d="M315.368 78.5909H297.284V96.6494H315.368V78.5909Z" fill="#A1E042"/>
<path opacity="0.2" d="M340.081 78.5909H321.997V96.6494H340.081V78.5909Z" fill="#A1E042"/>
<path opacity="0.2" d="M364.801 78.5909H346.717V96.6494H364.801V78.5909Z" fill="#A1E042"/>
<path opacity="0.2" d="M389.514 78.5909H371.43V96.6494H389.514V78.5909Z" fill="#A1E042"/>
<path d="M414.234 78.5909H396.149V96.6494H414.234V78.5909Z" fill="#A1E042"/>
<path opacity="0.2" d="M438.954 78.5909H420.869V96.6494H438.954V78.5909Z" fill="#A1E042"/>
<path opacity="0.2" d="M463.667 78.5909H445.582V96.6494H463.667V78.5909Z" fill="#A1E042"/>
<path opacity="0.2" d="M488.386 78.5909H470.302V96.6494H488.386V78.5909Z" fill="#A1E042"/>
<path opacity="0.2" d="M513.106 78.5909H495.022V96.6494H513.106V78.5909Z" fill="#A1E042"/>
<path opacity="0.2" d="M537.819 78.5909H519.735V96.6494H537.819V78.5909Z" fill="#A1E042"/>
<path opacity="0.2" d="M562.539 78.5909H544.455V96.6494H562.539V78.5909Z" fill="#A1E042"/>
<path d="M587.252 78.5909H569.167V96.6494H587.252V78.5909Z" fill="#A1E042"/>
<path d="M611.972 78.5909H593.887V96.6494H611.972V78.5909Z" fill="#A1E042"/>
<path opacity="0.2" d="M636.692 78.5909H618.607V96.6494H636.692V78.5909Z" fill="#A1E042"/>
<path opacity="0.2" d="M661.404 78.5909H643.32V96.6494H661.404V78.5909Z" fill="#A1E042"/>
<path d="M686.124 78.5909H668.04V96.6494H686.124V78.5909Z" fill="#A1E042"/>
<path d="M710.837 78.5909H692.753V96.6494H710.837V78.5909Z" fill="#A1E042"/>
<path d="M142.35 110.956V119.522H136.551C138.395 116.605 140.328 113.75 142.35 110.956Z" fill="#A1E042"/>
<path opacity="0.2" d="M167.063 101.463H148.979V119.522H167.063V101.463Z" fill="#A1E042"/>
<path d="M191.783 101.463H173.699V119.522H191.783V101.463Z" fill="#A1E042"/>
<path opacity="0.2" d="M216.496 101.463H198.411V119.522H216.496V101.463Z" fill="#A1E042"/>
<path opacity="0.7" d="M241.216 101.463H223.131V119.522H241.216V101.463Z" fill="#A1E042"/>
<path opacity="0.2" d="M265.929 101.463H247.844V119.522H265.929V101.463Z" fill="#A1E042"/>
<path opacity="0.4" d="M290.648 101.463H272.564V119.522H290.648V101.463Z" fill="#A1E042"/>
<path d="M315.368 101.463H297.284V119.522H315.368V101.463Z" fill="#A1E042"/>
<path opacity="0.4" d="M340.081 101.463H321.997V119.522H340.081V101.463Z" fill="#A1E042"/>
<path opacity="0.2" d="M364.801 101.463H346.717V119.522H364.801V101.463Z" fill="#A1E042"/>
<path opacity="0.4" d="M389.514 101.463H371.43V119.522H389.514V101.463Z" fill="#A1E042"/>
<path d="M414.234 101.463H396.149V119.522H414.234V101.463Z" fill="#A1E042"/>
<path opacity="0.4" d="M438.954 101.463H420.869V119.522H438.954V101.463Z" fill="#A1E042"/>
<path opacity="0.4" d="M463.667 101.463H445.582V119.522H463.667V101.463Z" fill="#A1E042"/>
<path opacity="0.2" d="M488.386 101.463H470.302V119.522H488.386V101.463Z" fill="#A1E042"/>
<path opacity="0.4" d="M513.106 101.463H495.022V119.522H513.106V101.463Z" fill="#A1E042"/>
<path opacity="0.4" d="M537.819 101.463H519.735V119.522H537.819V101.463Z" fill="#A1E042"/>
<path opacity="0.2" d="M562.539 101.463H544.455V119.522H562.539V101.463Z" fill="#A1E042"/>
<path opacity="0.2" d="M587.252 101.463H569.167V119.522H587.252V101.463Z" fill="#A1E042"/>
<path opacity="0.4" d="M611.972 101.463H593.887V119.522H611.972V101.463Z" fill="#A1E042"/>
<path opacity="0.2" d="M636.692 101.463H618.607V119.522H636.692V101.463Z" fill="#A1E042"/>
<path d="M661.404 101.463H643.32V119.522H661.404V101.463Z" fill="#A1E042"/>
<path d="M686.124 101.463H668.04V119.522H686.124V101.463Z" fill="#A1E042"/>
<path d="M710.837 101.463H692.753V119.522H710.837V101.463Z" fill="#A1E042"/>
<path opacity="0.2" d="M92.9106 129.779V142.401H74.8261V136.235C80.6776 133.618 86.724 131.46 92.9106 129.779V129.779Z" fill="#A1E042"/>
<path opacity="0.2" d="M117.63 125.702V142.401H99.546V128.179L117.63 125.702Z" fill="#A1E042"/>
<path d="M142.343 124.342H124.259V142.401H142.343V124.342Z" fill="#A1E042"/>
<path opacity="0.7" d="M167.063 124.342H148.979V142.401H167.063V124.342Z" fill="#A1E042"/>
<path d="M191.783 124.342H173.699V142.401H191.783V124.342Z" fill="#A1E042"/>
<path opacity="0.7" d="M216.496 124.342H198.411V142.401H216.496V124.342Z" fill="#A1E042"/>
<path opacity="0.7" d="M241.216 124.342H223.131V142.401H241.216V124.342Z" fill="#A1E042"/>
<path opacity="0.2" d="M265.929 124.342H247.844V142.401H265.929V124.342Z" fill="#A1E042"/>
<path opacity="0.4" d="M290.648 124.342H272.564V142.401H290.648V124.342Z" fill="#A1E042"/>
<path opacity="0.4" d="M315.368 124.342H297.284V142.401H315.368V124.342Z" fill="#A1E042"/>
<path d="M340.081 124.342H321.997V142.401H340.081V124.342Z" fill="#A1E042"/>
<path opacity="0.2" d="M364.801 124.342H346.717V142.401H364.801V124.342Z" fill="#A1E042"/>
<path opacity="0.4" d="M389.514 124.342H371.43V142.401H389.514V124.342Z" fill="#A1E042"/>
<path d="M414.234 124.342H396.149V142.401H414.234V124.342Z" fill="#A1E042"/>
<path opacity="0.2" d="M438.954 124.342H420.869V142.401H438.954V124.342Z" fill="#A1E042"/>
<path opacity="0.4" d="M463.667 124.342H445.582V142.401H463.667V124.342Z" fill="#A1E042"/>
<path opacity="0.2" d="M488.386 124.342H470.302V142.401H488.386V124.342Z" fill="#A1E042"/>
<path d="M513.106 124.342H495.022V142.401H513.106V124.342Z" fill="#A1E042"/>
<path opacity="0.2" d="M537.819 124.342H519.735V142.401H537.819V124.342Z" fill="#A1E042"/>
<path opacity="0.7" d="M562.539 124.342H544.455V142.401H562.539V124.342Z" fill="#A1E042"/>
<path opacity="0.7" d="M587.252 124.342H569.167V142.401H587.252V124.342Z" fill="#A1E042"/>
<path opacity="0.4" d="M611.972 124.342H593.887V142.401H611.972V124.342Z" fill="#A1E042"/>
<path opacity="0.2" d="M636.692 124.342H618.607V142.401H636.692V124.342Z" fill="#A1E042"/>
<path d="M661.404 124.342H643.32V142.401H661.404V124.342Z" fill="#A1E042"/>
<path d="M686.124 124.342H668.04V142.401H686.124V124.342Z" fill="#A1E042"/>
<path d="M710.837 124.342H692.753V142.401H710.837V124.342Z" fill="#A1E042"/>
<path opacity="0.2" d="M92.9106 147.215H74.8261V165.273H92.9106V147.215Z" fill="#A1E042"/>
<path opacity="0.2" d="M117.63 147.215H99.546V165.273H117.63V147.215Z" fill="#A1E042"/>
<path opacity="0.2" d="M142.343 147.215H124.259V165.273H142.343V147.215Z" fill="#A1E042"/>
<path opacity="0.2" d="M167.063 147.215H148.979V165.273H167.063V147.215Z" fill="#A1E042"/>
<path d="M191.783 147.215H173.699V165.273H191.783V147.215Z" fill="#A1E042"/>
<path opacity="0.7" d="M216.496 147.215H198.411V165.273H216.496V147.215Z" fill="#A1E042"/>
<path opacity="0.7" d="M241.216 147.215H223.131V165.273H241.216V147.215Z" fill="#A1E042"/>
<path opacity="0.2" d="M265.929 147.215H247.844V165.273H265.929V147.215Z" fill="#A1E042"/>
<path opacity="0.2" d="M290.648 147.215H272.564V165.273H290.648V147.215Z" fill="#A1E042"/>
<path opacity="0.4" d="M315.368 147.215H297.284V165.273H315.368V147.215Z" fill="#A1E042"/>
<path opacity="0.4" d="M340.081 147.215H321.997V165.273H340.081V147.215Z" fill="#A1E042"/>
<path d="M364.801 147.215H346.717V165.273H364.801V147.215Z" fill="#A1E042"/>
<path opacity="0.2" d="M389.514 147.215H371.43V165.273H389.514V147.215Z" fill="#A1E042"/>
<path opacity="0.4" d="M414.234 147.215H396.149V165.273H414.234V147.215Z" fill="#A1E042"/>
<path opacity="0.4" d="M438.954 147.215H420.869V165.273H438.954V147.215Z" fill="#A1E042"/>
<path opacity="0.4" d="M463.667 147.215H445.582V165.273H463.667V147.215Z" fill="#A1E042"/>
<path opacity="0.4" d="M488.386 147.215H470.302V165.273H488.386V147.215Z" fill="#A1E042"/>
<path opacity="0.2" d="M513.106 147.215H495.022V165.273H513.106V147.215Z" fill="#A1E042"/>
<path opacity="0.2" d="M537.819 147.215H519.735V165.273H537.819V147.215Z" fill="#A1E042"/>
<path opacity="0.2" d="M562.539 147.215H544.455V165.273H562.539V147.215Z" fill="#A1E042"/>
<path opacity="0.2" d="M587.252 147.215H569.167V165.273H587.252V147.215Z" fill="#A1E042"/>
<path opacity="0.7" d="M611.972 147.215H593.887V165.273H611.972V147.215Z" fill="#A1E042"/>
<path opacity="0.7" d="M636.692 147.215H618.607V165.273H636.692V147.215Z" fill="#A1E042"/>
<path opacity="0.4" d="M661.404 147.215H643.32V165.273H661.404V147.215Z" fill="#A1E042"/>
<path opacity="0.2" d="M686.124 147.215H668.04V165.273H686.124V147.215Z" fill="#A1E042"/>
<path d="M710.837 147.215H692.753V165.273H710.837V147.215Z" fill="#A1E042"/>
<path opacity="0.2" d="M92.9106 170.094H74.8261V188.152H92.9106V170.094Z" fill="#A1E042"/>
<path opacity="0.2" d="M117.63 170.094H99.546V188.152H117.63V170.094Z" fill="#A1E042"/>
<path opacity="0.4" d="M142.343 170.094H124.259V188.152H142.343V170.094Z" fill="#A1E042"/>
<path opacity="0.2" d="M167.063 170.094H148.979V188.152H167.063V170.094Z" fill="#A1E042"/>
<path opacity="0.2" d="M191.783 170.094H173.699V188.152H191.783V170.094Z" fill="#A1E042"/>
<path opacity="0.7" d="M216.496 170.094H198.411V188.152H216.496V170.094Z" fill="#A1E042"/>
<path opacity="0.7" d="M241.216 170.094H223.131V188.152H241.216V170.094Z" fill="#A1E042"/>
<path opacity="0.2" d="M265.929 170.094H247.844V188.152H265.929V170.094Z" fill="#A1E042"/>
<path opacity="0.2" d="M290.648 170.094H272.564V188.152H290.648V170.094Z" fill="#A1E042"/>
<path opacity="0.4" d="M315.368 170.094H297.284V188.152H315.368V170.094Z" fill="#A1E042"/>
<path d="M340.081 170.094H321.997V188.152H340.081V170.094Z" fill="#A1E042"/>
<path opacity="0.2" d="M364.801 170.094H346.717V188.152H364.801V170.094Z" fill="#A1E042"/>
<path d="M389.514 170.094H371.43V188.152H389.514V170.094Z" fill="#A1E042"/>
<path d="M414.234 170.094H396.149V188.152H414.234V170.094Z" fill="#A1E042"/>
<path d="M438.954 170.094H420.869V188.152H438.954V170.094Z" fill="#A1E042"/>
<path opacity="0.2" d="M463.667 170.094H445.582V188.152H463.667V170.094Z" fill="#A1E042"/>
<path d="M488.386 170.094H470.302V188.152H488.386V170.094Z" fill="#A1E042"/>
<path opacity="0.2" d="M513.106 170.094H495.022V188.152H513.106V170.094Z" fill="#A1E042"/>
<path opacity="0.2" d="M537.819 170.094H519.735V188.152H537.819V170.094Z" fill="#A1E042"/>
<path opacity="0.2" d="M562.539 170.094H544.455V188.152H562.539V170.094Z" fill="#A1E042"/>
<path opacity="0.2" d="M587.252 170.094H569.167V188.152H587.252V170.094Z" fill="#A1E042"/>
<path opacity="0.2" d="M611.972 170.094H593.887V188.152H611.972V170.094Z" fill="#A1E042"/>
<path opacity="0.7" d="M636.692 170.094H618.607V188.152H636.692V170.094Z" fill="#A1E042"/>
<path opacity="0.2" d="M661.404 170.094H643.32V188.152H661.404V170.094Z" fill="#A1E042"/>
<path opacity="0.2" d="M686.124 170.094H668.04V188.152H686.124V170.094Z" fill="#A1E042"/>
<path d="M710.837 170.094H692.753V188.152H710.837V170.094Z" fill="#A1E042"/>
<path opacity="0.2" d="M92.9106 192.966H74.8261V211.025H92.9106V192.966Z" fill="#A1E042"/>
<path opacity="0.2" d="M117.63 192.966H99.546V211.025H117.63V192.966Z" fill="#A1E042"/>
<path opacity="0.2" d="M142.343 192.966H124.259V211.025H142.343V192.966Z" fill="#A1E042"/>
<path opacity="0.4" d="M167.063 192.966H148.979V211.025H167.063V192.966Z" fill="#A1E042"/>
<path opacity="0.2" d="M191.783 192.966H173.699V211.025H191.783V192.966Z" fill="#A1E042"/>
<path opacity="0.2" d="M216.496 192.966H198.411V211.025H216.496V192.966Z" fill="#A1E042"/>
<path opacity="0.7" d="M241.216 192.966H223.131V211.025H241.216V192.966Z" fill="#A1E042"/>
<path opacity="0.2" d="M265.929 192.966H247.844V211.025H265.929V192.966Z" fill="#A1E042"/>
<path opacity="0.2" d="M290.648 192.966H272.564V211.025H290.648V192.966Z" fill="#A1E042"/>
<path opacity="0.2" d="M315.368 192.966H297.284V211.025H315.368V192.966Z" fill="#A1E042"/>
<path d="M340.081 192.966H321.997V211.025H340.081V192.966Z" fill="#A1E042"/>
<path opacity="0.2" d="M364.801 192.966H346.717V211.025H364.801V192.966Z" fill="#A1E042"/>
<path d="M389.514 192.966H371.43V211.025H389.514V192.966Z" fill="#A1E042"/>
<path d="M414.234 192.966H396.149V211.025H414.234V192.966Z" fill="#A1E042"/>
<path opacity="0.2" d="M438.954 192.966H420.869V211.025H438.954V192.966Z" fill="#A1E042"/>
<path opacity="0.2" d="M463.667 192.966H445.582V211.025H463.667V192.966Z" fill="#A1E042"/>
<path opacity="0.2" d="M488.386 192.966H470.302V211.025H488.386V192.966Z" fill="#A1E042"/>
<path opacity="0.2" d="M513.106 192.966H495.022V211.025H513.106V192.966Z" fill="#A1E042"/>
<path opacity="0.2" d="M537.819 192.966H519.735V211.025H537.819V192.966Z" fill="#A1E042"/>
<path opacity="0.2" d="M562.539 192.966H544.455V211.025H562.539V192.966Z" fill="#A1E042"/>
<path opacity="0.2" d="M587.252 192.966H569.167V211.025H587.252V192.966Z" fill="#A1E042"/>
<path opacity="0.2" d="M611.972 192.966H593.887V211.025H611.972V192.966Z" fill="#A1E042"/>
<path opacity="0.2" d="M636.692 192.966H618.607V211.025H636.692V192.966Z" fill="#A1E042"/>
<path opacity="0.2" d="M661.404 192.966H643.32V211.025H661.404V192.966Z" fill="#A1E042"/>
<path opacity="0.4" d="M686.124 192.966H668.04V211.025H686.124V192.966Z" fill="#A1E042"/>
<path d="M710.837 192.966H692.753V211.025H710.837V192.966Z" fill="#A1E042"/>
<path opacity="0.7" d="M92.9106 215.845H74.8261V233.904H92.9106V215.845Z" fill="#A1E042"/>
<path opacity="0.7" d="M117.63 215.845H99.546V233.904H117.63V215.845Z" fill="#A1E042"/>
<path opacity="0.7" d="M142.343 215.845H124.259V233.904H142.343V215.845Z" fill="#A1E042"/>
<path opacity="0.7" d="M167.063 215.845H148.979V233.904H167.063V215.845Z" fill="#A1E042"/>
<path opacity="0.7" d="M191.783 215.845H173.699V233.904H191.783V215.845Z" fill="#A1E042"/>
<path opacity="0.2" d="M216.496 215.845H198.411V233.904H216.496V215.845Z" fill="#A1E042"/>
<path opacity="0.2" d="M241.216 215.845H223.131V233.904H241.216V215.845Z" fill="#A1E042"/>
<path opacity="0.2" d="M265.929 215.845H247.844V233.904H265.929V215.845Z" fill="#A1E042"/>
<path opacity="0.2" d="M290.648 215.845H272.564V233.904H290.648V215.845Z" fill="#A1E042"/>
<path opacity="0.2" d="M315.368 215.845H297.284V233.904H315.368V215.845Z" fill="#A1E042"/>
<path opacity="0.2" d="M340.081 215.845H321.997V233.904H340.081V215.845Z" fill="#A1E042"/>
<path d="M364.801 215.845H346.717V233.904H364.801V215.845Z" fill="#A1E042"/>
<path opacity="0.2" d="M389.514 215.845H371.43V233.904H389.514V215.845Z" fill="#A1E042"/>
<path opacity="0.2" d="M414.234 215.845H396.149V233.904H414.234V215.845Z" fill="#A1E042"/>
<path opacity="0.2" d="M438.954 215.845H420.869V233.904H438.954V215.845Z" fill="#A1E042"/>
<path d="M463.667 215.845H445.582V233.904H463.667V215.845Z" fill="#A1E042"/>
<path opacity="0.2" d="M488.386 215.845H470.302V233.904H488.386V215.845Z" fill="#A1E042"/>
<path opacity="0.2" d="M513.106 215.845H495.022V233.904H513.106V215.845Z" fill="#A1E042"/>
<path opacity="0.2" d="M537.819 215.845H519.735V233.904H537.819V215.845Z" fill="#A1E042"/>
<path opacity="0.2" d="M562.539 215.845H544.455V233.904H562.539V215.845Z" fill="#A1E042"/>
<path opacity="0.2" d="M587.252 215.845H569.167V233.904H587.252V215.845Z" fill="#A1E042"/>
<path opacity="0.2" d="M611.972 215.845H593.887V233.904H611.972V215.845Z" fill="#A1E042"/>
<path opacity="0.2" d="M636.692 215.845H618.607V233.904H636.692V215.845Z" fill="#A1E042"/>
<path opacity="0.2" d="M661.404 215.845H643.32V233.904H661.404V215.845Z" fill="#A1E042"/>
<path opacity="0.2" d="M686.124 215.845H668.04V233.904H686.124V215.845Z" fill="#A1E042"/>
<path d="M710.837 215.845H692.753V233.904H710.837V215.845Z" fill="#A1E042"/>
<path d="M520.713 282.282C534.366 282.282 545.433 271.23 545.433 257.597C545.433 243.964 534.366 232.913 520.713 232.913C507.061 232.913 495.993 243.964 495.993 257.597C495.993 271.23 507.061 282.282 520.713 282.282Z" fill="#767D9F"/>
<path d="M519.43 226.195C521.897 236.945 523.991 247.776 525.711 258.687C526.228 261.93 526.689 265.349 525.512 268.414C524.527 270.969 522.521 272.966 520.947 275.203C519.373 277.44 518.182 280.307 519.139 282.869C520.096 285.432 522.889 286.833 525.555 287.555C533.183 289.608 541.314 288.115 548.907 285.892C552.344 285.008 555.64 283.645 558.697 281.843C561.915 279.804 564.552 276.972 566.977 274.056C578.043 260.655 585.288 244.572 592.108 228.588C587.726 228.986 583.312 228.337 579.23 226.695C575.149 225.053 571.517 222.465 568.636 219.144C565.843 215.867 563.794 211.301 565.368 207.294C560.753 209.821 555.273 209.991 550.303 211.718C547.221 212.894 544.255 214.351 541.442 216.072C538.048 218.03 534.674 220.027 531.318 222.061C527.483 224.368 523.889 226.421 519.43 226.195Z" fill="#AE6E79"/>
<path d="M571.131 244.728C566.8 253.145 561.164 261.236 553.118 266.248C545.071 271.26 534.239 272.619 526.179 267.664C522.209 265.243 519.203 261.561 515.736 258.461C512.27 255.36 507.938 252.706 503.281 253.109C498.148 253.555 494.129 257.555 490.69 261.384C485.473 267.203 480.432 273.27 476.739 280.158C469.65 293.396 467.97 308.87 468.282 323.878C468.594 338.885 470.77 353.815 470.82 368.822C470.89 387.284 467.757 405.598 464.588 423.784C493.725 420.202 522.896 428.031 552.097 430.997C570.784 432.915 589.613 432.873 608.399 432.823C611.702 432.823 615.219 432.738 617.969 430.912C619.65 429.687 621.01 428.075 621.932 426.212C624.527 421.433 625.569 415.982 626.292 410.595C628.128 396.99 628.185 383.214 628.234 369.481C628.362 336.209 628.482 302.818 624.25 269.808C623.208 261.689 621.875 253.527 618.756 245.931C615.637 238.335 610.547 231.348 603.429 227.278C598.857 224.659 588.259 220.1 582.871 222.74C576.824 225.685 574.031 239.093 571.131 244.728Z" fill="#767D9F"/>
<path d="M573.286 338.68C572.187 318.151 567.714 296.241 577.235 278.02C579.574 273.546 571.181 267.961 573.775 263.628C576.942 258.346 579.343 252.643 580.907 246.688C581.446 244.643 581.878 242.476 581.368 240.424C580.425 236.679 576.717 234.449 573.57 232.169C570.096 229.649 568.31 221.969 567.19 217.813C566.07 213.658 576.101 218.663 580.134 217.183C585.735 215.137 592.852 216.426 598.439 218.5C601.558 219.647 604.946 219.746 608.271 219.831C614.73 220.001 621.209 220.164 627.618 219.371C630.496 219.01 633.381 218.465 636.273 218.627C643.653 219.045 650.069 224.085 654.436 230.046C658.803 236.006 661.582 242.951 665.162 249.407C668.146 254.787 671.705 259.87 674.25 265.469C676.504 270.424 677.929 275.748 679.34 281.043L682.977 294.627C683.613 296.571 683.915 298.608 683.87 300.652C683.686 302.825 682.722 304.849 681.743 306.782C678.044 313.945 673.608 320.704 668.508 326.95C660.859 336.316 651.572 344.761 647.028 355.974C645.255 360.342 644.27 364.985 643.37 369.615C639.74 388.132 637.16 406.838 635.643 425.645C627.359 421.818 618.676 418.919 609.753 417.002C605.305 416.051 600.808 415.343 596.283 414.878C592.321 414.468 587.209 415.246 583.438 414.17C577.129 412.379 576.434 401.725 575.477 396.147C573.946 387.263 573.641 378.223 573.584 369.247C573.513 359.039 573.832 348.852 573.286 338.68Z" fill="#4C4981"/>
<path d="M434.729 300.291C437.713 317.28 441.002 334.319 447.489 350.282C447.326 350.438 447.163 350.58 447 350.721C446.426 351.21 445.83 351.67 445.206 352.137C443.753 353.157 442.158 354.02 440.953 355.351C440.496 355.86 440.136 356.448 439.889 357.085C439.667 357.583 439.552 358.122 439.552 358.668C439.552 359.213 439.667 359.752 439.889 360.25C436.508 361.743 432.581 361.283 428.788 361.142C425.52 361.021 422.351 361.142 419.728 362.933C416.084 365.439 414.985 370.252 414.397 374.627C414.179 376.222 413.993 377.82 413.837 379.42C413.686 380.906 413.563 382.397 413.468 383.893C413.147 388.842 413.102 393.805 413.333 398.759C413.371 399.665 413.421 400.572 413.482 401.478C401.899 401.202 391.343 395.17 381.354 389.309C379.072 387.971 376.718 386.562 375.236 384.354C373.871 382.184 373.293 379.613 373.599 377.069C373.599 376.708 373.663 376.361 373.712 375.993C374.03 373.893 374.574 371.832 375.336 369.849C378.461 361.399 383.067 353.573 388.94 346.736C391.478 343.777 394.335 340.882 395.518 337.165C396.036 335.544 396.227 333.824 396.752 332.21C399.106 325.216 407.598 321.91 410.505 315.121C411.214 313.5 411.54 311.723 412.419 310.166C413.21 308.872 414.231 307.732 415.432 306.803C415.949 306.371 416.488 305.954 417.02 305.536C422.001 301.638 426.801 297.52 431.418 293.183C432.278 292.376 433.129 291.56 433.97 290.734C433.858 293.938 434.112 297.144 434.729 300.291V300.291Z" fill="#4C4981"/>
<path d="M506.166 250.044C505.145 251.12 504.039 252.132 502.955 253.137L502.664 253.399L501.516 254.461C499.431 256.258 497.627 258.355 496.163 260.684L496.043 260.882C492.427 267.345 493.767 275.302 494.774 282.643C496.022 291.791 496.584 301.019 496.454 310.251C496.27 322.993 494.767 335.65 494.738 348.378C494.738 351.266 494.802 354.147 494.93 357.036C495.135 361.729 495.49 366.415 495.915 371.102C496.376 376.241 496.929 381.373 497.446 386.506C497.858 390.477 498.248 394.441 498.574 398.405C498.737 400.458 498.893 402.504 499.02 404.557C499.169 406.964 499.29 409.378 499.361 411.785C499.41 413.314 499.439 414.836 499.439 416.365C499.439 417.235 499.439 418.099 499.439 418.963C499.439 420.619 499.394 422.271 499.304 423.918C499.209 426.037 499.065 428.161 498.871 430.289C498.652 432.604 498.262 435.131 496.631 436.759C496.532 436.858 496.426 436.95 496.319 437.042L494.022 436.759C478.189 434.866 462.204 434.582 446.312 435.91C446.66 433.517 446.979 431.131 447.291 428.732C447.432 427.599 447.574 426.459 447.709 425.32C447.865 424.017 448.014 422.715 448.155 421.412C448.319 419.996 448.467 418.58 448.609 417.165C448.978 413.517 449.302 409.866 449.58 406.213C449.992 400.885 450.303 395.548 450.516 390.201C450.62 387.648 450.701 385.092 450.757 382.534C450.838 379.363 450.875 376.189 450.871 373.013C450.871 369.927 450.845 366.835 450.793 363.739C450.793 362.72 450.75 361.701 450.665 360.688C450.604 359.777 450.478 358.871 450.289 357.977C449.763 355.916 449.051 353.907 448.163 351.974C448.007 351.606 447.858 351.266 447.709 350.877C447.624 350.686 447.546 350.488 447.468 350.296C451.551 346.665 454.458 341.802 457.251 337.016C461.781 329.307 466.417 321.259 467.176 312.353C467.934 303.448 463.504 293.445 454.982 290.727C452.664 290.019 450.211 289.821 447.822 289.403C445.568 289.007 440.868 288.108 438.259 286.494C436.841 287.947 435.423 289.375 434.006 290.776C434.092 288.638 434.615 286.539 435.544 284.611L436.551 284.66C436.468 284.433 436.43 284.193 436.437 283.952C436.437 283.195 436.962 282.338 438.082 281.39C441.421 278.558 446.674 277.928 448.779 274.098C449.658 272.506 449.807 270.608 450.516 268.938C452.551 264.174 458.392 262.418 461.908 258.609C465.425 254.801 466.304 249.407 469.147 245.159C471.27 242.058 474.215 239.607 477.654 238.08C477.937 237.946 478.228 237.811 478.518 237.691C484.402 235.178 491.392 234.605 497.489 234.619C499.857 234.619 505.996 234.69 509.002 235.886C509.489 236.06 509.936 236.332 510.313 236.686C513.518 240.169 508.534 247.524 506.166 250.044Z" fill="#4C4981"/>
<path d="M435.785 284.115C441.261 282.469 447.011 281.926 452.699 282.518C458.387 283.11 463.901 284.824 468.92 287.563C474.024 290.394 478.603 294.344 481.411 299.441C485.629 307.086 485.444 316.303 485.147 325.032C484.998 329.399 484.806 333.923 482.878 337.845C480.645 342.382 476.434 345.497 472.138 348.045C469.447 349.76 466.498 351.034 463.404 351.818C458.64 352.852 453.692 351.974 448.893 351.111C443.675 350.148 438.075 348.987 434.452 345.108C432.325 342.856 431.163 339.933 430.014 337.073C428.365 332.944 426.711 328.819 425.052 324.699C422.181 317.542 421.21 311.589 425.002 304.616C426.725 301.437 428.83 298.464 430.532 295.264C431.383 293.636 434.431 284.533 435.785 284.115Z" fill="#4C4981"/>
<path d="M733.728 406.49V427.656C719.186 433.688 703.587 436.768 687.84 436.717H496.652C496.553 436.816 496.447 436.908 496.34 437L494.044 436.717H153.955C125.421 436.717 98.9789 429.029 77.2931 415.933V383.617L240.854 364.766H240.982L336.232 372.822L360.881 374.946L373.684 376.029L400.183 378.273L413.816 379.427L433.665 381.111L436.458 381.345L450.764 382.555L470.174 384.148L497.468 386.456L542.966 390.314L574.973 393.025L627.532 397.478L637.528 398.32L638.606 398.412L639.541 398.49L652.741 399.609L667.232 400.841L668.912 400.982L733.728 406.49Z" fill="#504F60"/>
<path d="M541.612 405.711L336.636 370.776L328.689 410.907L422.649 422.141L451.58 425.759L531.162 410.107L541.612 405.711Z" fill="#9C9CA1"/>
<path d="M435.508 423.748L538.202 404.472C538.716 404.374 539.245 404.39 539.752 404.521C540.258 404.651 540.73 404.891 541.132 405.225C541.535 405.558 541.858 405.977 542.08 406.45C542.301 406.923 542.415 407.44 542.413 407.962V407.962C542.415 408.791 542.126 409.594 541.596 410.231C541.067 410.869 540.329 411.301 539.513 411.452L439.223 430.204L435.508 423.748Z" fill="#9C9CA1"/>
<path d="M480.057 363.131C483.254 362.833 486.494 362.331 489.372 360.915C492.916 359.152 495.674 356.115 498.956 353.879C506.173 348.923 515.829 348.258 524.102 351.104C532.375 353.949 539.28 360.044 544.114 367.322C547.326 372.171 549.736 378.358 547.468 383.709C546.689 385.345 545.708 386.877 544.547 388.268L538.634 395.984C537.511 397.606 536.16 399.058 534.622 400.295C532.41 401.902 529.66 402.561 526.952 402.957C519.756 404.005 512.433 403.41 505.181 403.892C492.725 404.72 480.56 408.727 468.076 408.592C460.902 408.514 453.82 407.07 446.809 405.626L415.779 399.255C410.377 398.151 404.274 396.537 401.729 391.645C400.587 389.443 400.375 386.895 400.24 384.417C399.871 377.593 400.24 370.004 404.975 365.085C409.427 360.469 416.467 359.011 421.784 355.599C428.292 351.415 430.44 352.767 437.302 355.91C450.69 361.964 465.42 364.452 480.057 363.131V363.131Z" fill="#AE6E79"/>
<path opacity="0.05" d="M480.057 363.131C483.254 362.833 486.494 362.331 489.372 360.915C492.916 359.152 495.674 356.115 498.956 353.879C506.173 348.923 515.829 348.258 524.102 351.104C532.375 353.949 539.28 360.044 544.114 367.322C547.326 372.171 549.736 378.358 547.468 383.709C546.689 385.345 545.708 386.877 544.547 388.268L538.634 395.984C537.511 397.606 536.16 399.058 534.622 400.295C532.41 401.902 529.66 402.561 526.952 402.957C519.756 404.005 512.433 403.41 505.181 403.892C492.725 404.72 480.56 408.727 468.076 408.592C460.902 408.514 453.82 407.07 446.809 405.626L415.779 399.255C410.377 398.151 404.274 396.537 401.729 391.645C400.587 389.443 400.375 386.895 400.24 384.417C399.871 377.593 400.24 370.004 404.975 365.085C409.427 360.469 416.467 359.011 421.784 355.599C428.292 351.415 430.44 352.767 437.302 355.91C450.69 361.964 465.42 364.452 480.057 363.131V363.131Z" fill="black"/>
<path d="M604.663 353.425C595.957 356.788 587.202 360.165 578.086 362.168C562.801 365.531 546.808 365 531.645 368.844C523.634 370.882 515.673 374.167 507.442 373.502C503.763 373.204 500.211 372.086 496.631 371.236C476.519 366.281 453.657 367.888 437.323 380.63C431.737 384.984 427.165 390.413 423.017 396.204C422.13 397.455 421.53 398.886 421.261 400.395C420.992 401.904 421.06 403.454 421.46 404.933C421.86 406.413 422.583 407.786 423.576 408.955C424.57 410.123 425.81 411.058 427.207 411.693C433.559 414.61 440.363 416.422 447.326 417.051C456.634 417.873 465.985 416.556 475.243 415.239C488.982 413.292 502.728 411.339 516.431 409.151C521.351 408.366 526.271 407.551 531.219 406.928C566.828 402.433 603.082 407.898 638.783 404.146C642.391 403.764 646.064 403.269 649.346 401.733C657.654 397.839 661.766 387.575 660.051 378.556C658.335 369.537 651.714 362.041 643.745 357.439C637.067 353.567 629.865 352.003 622.428 350.36C615.524 348.753 611.313 350.877 604.663 353.425Z" fill="#AE6E79"/>
<path opacity="0.1" d="M681.034 299.512C684.962 304.651 685.798 311.546 685.373 317.981C684.948 324.416 683.416 330.78 683.19 337.243C682.878 346.106 685.019 354.94 684.657 363.775C684.402 369.955 682.934 376.015 681.198 381.947C679.149 388.948 676.185 396.473 669.713 399.835C661.121 404.302 643.1 401.789 634.062 405.286C634.884 400.168 642.767 392.756 643.589 387.638C644.157 384.099 644.731 380.46 644.121 376.914C643.341 372.39 640.683 368.376 637.528 365.035C632.509 359.719 625.959 355.719 618.763 354.417C611.568 353.114 593.951 354.183 588.195 358.721C587.486 354.034 600.672 349.518 605.308 348.506C607.619 347.989 610.27 348.279 612.121 346.814C615.665 344.039 613.092 338.51 613.262 334.072C613.397 330.532 615.467 327.29 615.885 323.75C616.594 318.087 612.893 312.318 614.347 306.761C614.885 304.708 616.083 302.903 616.913 300.949C619.437 294.967 618.331 288.143 616.984 281.786C616.147 277.794 615.332 273.291 617.558 269.886C619.621 266.708 625.477 278.027 629.227 277.503C641.612 275.769 652.82 266.602 662.822 274.105C667.919 277.928 668.586 281.892 670.62 287.35C672.598 292.546 677.724 295.208 681.034 299.512Z" fill="black"/>
<path d="M683.161 299.512C687.089 304.651 687.925 311.546 687.5 317.981C687.074 324.416 685.543 330.78 685.316 337.243C685.004 346.106 687.145 354.94 686.784 363.775C686.529 369.955 685.061 376.015 683.324 381.947C681.275 388.948 678.312 396.473 671.84 399.835C663.248 404.302 645.227 401.789 636.188 405.286C637.011 400.168 644.894 392.756 645.716 387.638C646.283 384.099 646.858 380.46 646.248 376.914C645.468 372.39 642.81 368.376 639.655 365.035C634.636 359.719 628.085 355.719 620.89 354.417C613.694 353.114 596.078 354.183 590.322 358.721C589.613 354.034 602.798 349.518 607.435 348.506C609.746 347.989 612.397 348.279 614.247 346.814C617.792 344.039 615.219 338.51 615.389 334.072C615.523 330.532 617.594 327.29 618.012 323.75C618.721 318.087 615.02 312.318 616.473 306.761C617.012 304.708 618.21 302.903 619.04 300.949C621.563 294.967 620.458 288.143 619.111 281.786C618.274 277.794 617.459 273.291 619.685 269.886C621.748 266.708 625.782 265.504 629.532 264.974C642.088 263.278 654.81 266.555 664.977 274.105C670.075 277.928 670.741 281.892 672.776 287.35C674.725 292.546 679.851 295.208 683.161 299.512Z" fill="#4C4981"/>
<path d="M214.093 265.972L252.636 408.217C253.109 409.96 254.103 411.517 255.485 412.682C256.866 413.847 258.571 414.563 260.371 414.737L433.857 431.379C435.271 431.515 436.697 431.311 438.015 430.784C439.334 430.256 440.507 429.421 441.436 428.348C442.364 427.275 443.022 425.995 443.354 424.616C443.686 423.237 443.682 421.798 443.342 420.421L401.133 248.84C400.631 246.801 399.421 245.005 397.718 243.773C396.015 242.54 393.929 241.95 391.832 242.108L221.983 254.794C220.679 254.895 219.413 255.282 218.276 255.928C217.139 256.574 216.159 257.462 215.405 258.53C214.652 259.598 214.143 260.818 213.916 262.104C213.69 263.391 213.75 264.711 214.093 265.972V265.972Z" fill="#9C9CA1"/>
<path d="M557.995 293.728C568.527 293.728 577.065 285.092 577.065 274.438C577.065 263.784 568.527 255.148 557.995 255.148C547.463 255.148 538.925 263.784 538.925 274.438C538.925 285.092 547.463 293.728 557.995 293.728Z" fill="white"/>
<path d="M573.655 239.249C573.655 239.249 577.674 251.184 565.814 256.203L564.297 258.85L571.727 266.17C571.727 266.17 580.886 249.485 579.893 243.56C579.893 243.56 578.475 237.543 573.655 239.249Z" fill="white"/>
<path d="M560.186 293.728C570.342 293.728 578.575 285.507 578.575 275.365C578.575 265.224 570.342 257.003 560.186 257.003C550.029 257.003 541.796 265.224 541.796 275.365C541.796 285.507 550.029 293.728 560.186 293.728Z" fill="#A1E042"/>
<path d="M579.986 246.271L577.065 241.457L572.811 240.855C573.719 225.006 569.6 220.284 569.6 220.284L568.643 220.192L564.474 219.788L556.634 211.662V209.354C567.65 210.664 573.74 215.888 577.029 222.011C582.842 232.757 579.986 246.271 579.986 246.271Z" fill="#A1E042"/>
<path opacity="0.1" d="M568.678 217.275V220.192L564.51 219.788L556.669 211.662C556.669 211.662 568.799 214.373 568.678 217.275Z" fill="black" stroke="#4C4981" stroke-miterlimit="10"/>
<path opacity="0.1" d="M579.986 246.271L577.065 241.457V222.039C582.842 232.757 579.986 246.271 579.986 246.271Z" fill="black" stroke="#4C4981" stroke-miterlimit="10"/>
<path d="M526.205 282.914C531.097 280.093 530.887 270.582 525.734 261.671C520.582 252.759 512.439 247.822 507.546 250.643C502.653 253.463 502.864 262.974 508.016 271.886C513.169 280.797 521.312 285.735 526.205 282.914Z" fill="white"/>
<path d="M519.635 265.221C524.789 274.134 531.113 280.087 526.221 282.919C521.33 285.75 507.081 284.335 501.927 275.415C496.773 266.496 501.452 254.178 506.343 251.346C511.235 248.515 514.475 256.288 519.635 265.221Z" fill="#A1E042"/>
<path opacity="0.1" d="M565.524 201.015C565.524 229.494 546.007 256.939 517.487 256.939C503.79 256.939 490.655 251.506 480.969 241.834C471.284 232.163 465.843 219.046 465.843 205.369C465.843 191.691 471.284 178.574 480.969 168.903C490.655 159.231 503.79 153.798 517.487 153.798C546.007 153.826 565.524 172.529 565.524 201.015Z" fill="black"/>
<path d="M517.487 255.551C546.01 255.551 569.132 232.462 569.132 203.981C569.132 175.499 546.01 152.411 517.487 152.411C488.965 152.411 465.843 175.499 465.843 203.981C465.843 232.462 488.965 255.551 517.487 255.551Z" fill="#AE6E79"/>
<path d="M512.95 181.13C519.097 183.388 522.733 189.731 528.249 193.263C536.047 198.219 546.199 196.937 555.103 194.488C560.065 193.136 565.254 191.487 570.139 192.987C570.857 193.305 571.65 193.418 572.428 193.313C573.492 193.009 574.016 191.833 574.364 190.786C580.404 172.805 577.689 152.439 568.572 135.803C566.218 131.513 563.397 127.365 559.512 124.385C556.449 122.042 552.848 120.506 549.219 119.196C542.585 116.817 535.725 115.126 528.745 114.149C527.512 113.925 526.254 113.884 525.009 114.028C523.301 114.304 521.769 115.225 520.245 116.046C513.717 119.54 506.478 121.503 499.077 121.787C489.152 122.162 477.809 119.826 470.16 126.183C460.944 133.807 463.241 148.68 457.265 159.029C453.309 165.875 445.681 170.844 444.427 178.638C444.1 181.02 444.252 183.444 444.873 185.767C447.794 197.759 459.42 207.046 471.812 207.266C473.715 207.411 475.621 207.021 477.313 206.14C478.422 205.384 479.401 204.454 480.213 203.386C488.33 193.787 497.617 175.495 512.95 181.13Z" fill="#444053"/>
<path opacity="0.1" d="M574.364 185.569C574.016 186.616 573.492 187.791 572.428 188.096C571.65 188.201 570.857 188.088 570.139 187.77C565.254 186.269 560.037 187.919 555.11 189.271C546.199 191.72 536.026 193.03 528.256 188.046C522.733 184.507 519.104 178.136 512.95 175.913C497.617 170.25 488.33 188.57 480.191 198.169C479.38 199.237 478.401 200.167 477.292 200.923C475.599 201.804 473.694 202.193 471.791 202.048C459.441 201.829 447.808 192.541 444.852 180.55C444.689 179.842 444.547 179.134 444.441 178.426C444.441 178.49 444.441 178.546 444.405 178.61C444.079 180.992 444.23 183.416 444.852 185.738C447.773 197.73 459.406 207.018 471.791 207.237C473.694 207.382 475.599 206.992 477.292 206.112C478.401 205.356 479.38 204.426 480.191 203.358C488.33 193.759 497.617 175.467 512.95 181.102C519.104 183.36 522.733 189.703 528.256 193.235C536.054 198.19 546.199 196.909 555.11 194.46C560.072 193.108 565.254 191.458 570.139 192.959C570.857 193.277 571.65 193.389 572.428 193.285C573.492 192.98 574.016 191.805 574.364 190.757C576.8 183.4 577.876 175.662 577.54 167.921C577.331 173.925 576.262 179.868 574.364 185.569V185.569Z" fill="black"/>
</g>
<defs>
<clipPath id="clip0">
<rect width="811" height="437" fill="white"/>
</clipPath>
</defs>
</svg>
