<svg width="536" height="432" viewBox="0 0 536 432" fill="none" xmlns="http://www.w3.org/2000/svg">
<path d="M268 432C416.012 432 536 423.951 536 414.021C536 404.092 416.012 396.043 268 396.043C119.988 396.043 0 404.092 0 414.021C0 423.951 119.988 432 268 432Z" fill="#3F3D56"/>
<path opacity="0.1" d="M331.958 425.836C428.752 425.836 507.218 419.856 507.218 412.48C507.218 405.104 428.752 399.125 331.958 399.125C235.165 399.125 156.698 405.104 156.698 412.48C156.698 419.856 235.165 425.836 331.958 425.836Z" fill="black"/>
<path d="M98.351 363.031L101.095 394.57L113.443 397.313L116.188 389.085C116.188 389.085 111.385 366.459 111.385 362.345L98.351 363.031Z" fill="#A0616A"/>
<path d="M132.652 341.09C132.652 341.09 127.164 354.803 125.106 356.174C123.048 357.546 131.28 375.372 131.28 375.372L143.628 373.315C143.628 373.315 139.512 358.917 142.942 350.689L132.652 341.09Z" fill="#A0616A"/>
<path d="M128.879 348.975C128.879 348.975 123.734 350.689 121.676 358.231C119.618 365.773 119.618 366.459 119.618 366.459L123.048 374.001H125.106C125.106 374.001 128.536 385.657 127.85 389.771C127.164 393.885 132.652 409.654 142.256 408.969C151.861 408.283 149.803 396.627 149.803 396.627L145.001 372.63C145.001 372.63 145.001 366.459 143.628 366.459C142.256 366.459 131.28 368.516 131.28 368.516V370.573C131.28 370.573 123.391 359.945 128.879 348.975Z" fill="#2F2E41"/>
<path d="M111.385 391.142V387.028C111.385 387.028 96.9789 389.085 96.9789 391.142V395.941C96.9789 395.941 84.6305 421.996 98.3509 421.996C112.071 421.996 114.815 416.511 114.815 416.511V408.969C114.815 408.969 121.676 405.54 121.676 403.484C121.676 401.427 114.981 383.256 114.981 383.256C114.981 383.256 114.815 393.885 111.385 391.142Z" fill="#2F2E41"/>
<path d="M94.9209 51.7492C107.045 51.7492 116.874 41.9261 116.874 29.8086C116.874 17.6912 107.045 7.8681 94.9209 7.8681C82.7967 7.8681 72.9681 17.6912 72.9681 29.8086C72.9681 41.9261 82.7967 51.7492 94.9209 51.7492Z" fill="#A0616A"/>
<path d="M86.3456 46.6069C86.3456 46.6069 89.0897 59.6341 89.0897 61.0054C89.0897 62.3767 102.124 68.5474 102.124 68.5474L113.786 66.4905L117.903 54.149C117.903 54.149 111.042 43.8643 111.042 39.7505L86.3456 46.6069Z" fill="#A0616A"/>
<path d="M88.1822 55.6455C88.1822 55.6455 95.2639 67.1761 105.554 63.7479C108.416 62.8798 110.93 61.1304 112.738 58.7493C114.545 56.3683 115.554 53.4773 115.62 50.4891L149.46 62.3766L143.285 112.428L148.774 170.708L144.657 178.25H84.2875C84.2875 178.25 82.2294 167.966 81.5434 167.966C80.8574 167.966 79.4853 165.909 80.1714 165.223C80.8574 164.537 82.2294 163.852 81.5434 161.795C80.8574 159.738 80.1714 137.112 80.1714 137.112L59.5907 77.4608L88.1822 55.6455Z" fill="#D0CDE1"/>
<path d="M61.9918 186.135L74.3401 202.59C74.3401 202.59 76.3982 185.449 79.1423 184.764L72.2821 179.964L61.9918 186.135Z" fill="#A0616A"/>
<path d="M199.196 173.108C199.196 173.108 217.719 184.764 215.661 192.306C213.603 199.848 192.336 179.279 192.336 178.593C192.336 177.907 199.196 173.108 199.196 173.108Z" fill="#A0616A"/>
<path d="M83.9445 173.108H82.5724L80.5144 182.707C80.5144 182.707 69.538 192.306 75.0262 207.39L86.0026 279.382L87.3746 363.031L99.723 366.459L113.443 363.716L116.874 251.957C116.874 251.957 121.676 241.672 119.618 238.244C117.56 234.816 120.304 235.501 120.304 235.501L134.71 275.268C134.71 275.268 129.908 288.296 134.71 292.41C134.71 292.41 134.024 294.466 134.71 295.152C135.396 295.838 138.826 298.58 137.454 299.952C136.082 301.323 135.396 299.952 135.396 302.009C135.396 304.065 128.536 321.207 131.28 343.147L140.198 356.86L148.431 352.06L163.523 309.551C163.523 309.551 160.093 303.38 163.523 302.009C166.953 300.637 167.639 299.266 166.267 297.209C164.895 295.152 164.895 288.296 166.953 284.867C169.011 281.439 166.953 275.954 166.953 275.954L159.407 206.704C159.407 206.704 162.837 188.192 151.175 178.593L149.117 171.051C149.117 171.051 131.966 183.392 83.9445 173.108Z" fill="#2F2E41"/>
<path d="M75.8835 12.1319C75.8835 12.1319 82.8535 -2.96119 96.2124 0.521833C109.571 4.00486 117.122 9.22939 117.703 14.4539C118.284 19.6784 117.413 27.5152 117.413 27.5152C117.413 27.5152 115.961 16.7759 106.667 19.0979C97.3741 21.42 82.8535 19.6784 82.8535 19.6784L80.5302 40.5766C80.5302 40.5766 77.9165 36.8033 75.0123 39.1253C72.1082 41.4473 66.5903 16.7759 75.8835 12.1319Z" fill="#2F2E41"/>
<path d="M69.881 77.4608H59.5907C59.5907 77.4608 50.6724 85.0029 51.3584 99.4014L46.5563 139.854C46.5563 139.854 46.5563 159.738 54.7885 174.136L63.7069 191.277C63.7069 191.277 67.137 181.678 77.4273 183.05L71.9391 168.651V165.223C71.9391 165.223 69.8811 162.48 69.8811 161.795C69.8811 161.109 72.6251 161.109 70.5671 159.738C68.509 158.367 66.4509 144.654 66.4509 144.654C66.4509 144.654 67.137 141.911 67.823 141.226C68.509 140.54 67.137 138.483 67.137 138.483L68.509 136.426L77.4273 102.83L69.881 77.4608Z" fill="#D0CDE1"/>
<path d="M137.797 60.3197L149.46 62.3766C149.46 62.3766 156.32 69.2331 159.064 77.4608L164.552 102.144L173.47 119.971C173.47 119.971 183.761 130.255 191.307 153.567L202.283 174.136L190.621 180.993C190.621 180.993 158.378 143.282 154.262 130.255L136.425 95.9731L137.797 60.3197Z" fill="#D0CDE1"/>
<path d="M484.09 162.321H202.954V415.562H484.09V162.321Z" fill="#3F3D56"/>
<path d="M206.997 198.278H199.137V386.797H206.997V198.278Z" fill="#ADFF2F"/>
<path d="M412.393 199.562H375.902V200.59H412.393V199.562Z" fill="#F2F2F2"/>
<path d="M412.907 191.344H375.902V197.508H412.907V191.344Z" fill="#F2F2F2"/>
<path d="M413.421 386.54H389.778V373.184H406.868V374.212H390.806V385.513H412.393V379.074H413.421V386.54Z" fill="#F2F2F2"/>
<path d="M412.393 221.137H242.272V225.246H412.393V221.137Z" fill="#F2F2F2"/>
<path d="M412.393 240.143H242.272V244.252H412.393V240.143Z" fill="#F2F2F2"/>
<path d="M412.393 259.149H242.272V263.258H412.393V259.149Z" fill="#F2F2F2"/>
<path d="M412.393 278.155H242.272V282.264H412.393V278.155Z" fill="#F2F2F2"/>
<path d="M412.393 297.161H242.272V301.27H412.393V297.161Z" fill="#F2F2F2"/>
<path d="M412.393 316.167H242.272V320.276H412.393V316.167Z" fill="#F2F2F2"/>
<path d="M412.393 335.172H242.272V339.282H412.393V335.172Z" fill="#F2F2F2"/>
<path d="M412.393 354.178H242.272V358.288H412.393V354.178Z" fill="#F2F2F2"/>
<path d="M438.091 229.869C441.781 229.869 444.772 226.879 444.772 223.191C444.772 219.503 441.781 216.514 438.091 216.514C434.401 216.514 431.409 219.503 431.409 223.191C431.409 226.879 434.401 229.869 438.091 229.869Z" fill="#ADFF2F"/>
<path d="M438.091 248.875C441.781 248.875 444.772 245.885 444.772 242.197C444.772 238.509 441.781 235.52 438.091 235.52C434.401 235.52 431.409 238.509 431.409 242.197C431.409 245.885 434.401 248.875 438.091 248.875Z" fill="#F2F2F2"/>
<path d="M438.091 267.881C441.781 267.881 444.772 264.891 444.772 261.203C444.772 257.515 441.781 254.526 438.091 254.526C434.401 254.526 431.409 257.515 431.409 261.203C431.409 264.891 434.401 267.881 438.091 267.881Z" fill="#ADFF2F"/>
<path d="M438.091 286.887C441.781 286.887 444.772 283.897 444.772 280.209C444.772 276.521 441.781 273.531 438.091 273.531C434.401 273.531 431.409 276.521 431.409 280.209C431.409 283.897 434.401 286.887 438.091 286.887Z" fill="#F2F2F2"/>
<path d="M438.091 305.893C441.781 305.893 444.772 302.903 444.772 299.215C444.772 295.527 441.781 292.537 438.091 292.537C434.401 292.537 431.409 295.527 431.409 299.215C431.409 302.903 434.401 305.893 438.091 305.893Z" fill="#F2F2F2"/>
<path d="M438.091 324.899C441.781 324.899 444.772 321.909 444.772 318.221C444.772 314.533 441.781 311.543 438.091 311.543C434.401 311.543 431.409 314.533 431.409 318.221C431.409 321.909 434.401 324.899 438.091 324.899Z" fill="#F2F2F2"/>
<path d="M438.091 343.905C441.781 343.905 444.772 340.915 444.772 337.227C444.772 333.539 441.781 330.549 438.091 330.549C434.401 330.549 431.409 333.539 431.409 337.227C431.409 340.915 434.401 343.905 438.091 343.905Z" fill="#ADFF2F"/>
<path d="M438.091 362.911C441.781 362.911 444.772 359.921 444.772 356.233C444.772 352.545 441.781 349.555 438.091 349.555C434.401 349.555 431.409 352.545 431.409 356.233C431.409 359.921 434.401 362.911 438.091 362.911Z" fill="#ADFF2F"/>
<path d="M401.857 383.414L396.097 377.657L396.823 376.931L401.857 381.961L416.912 366.914L417.639 367.64L401.857 383.414Z" fill="#ADFF2F"/>
<path opacity="0.1" d="M401.857 396.043C421.442 396.043 437.32 395.123 437.32 393.988C437.32 392.853 421.442 391.933 401.857 391.933C382.271 391.933 366.393 392.853 366.393 393.988C366.393 395.123 382.271 396.043 401.857 396.043Z" fill="black"/>
<path d="M41.9332 407.868C41.8153 407.676 39.0341 403.035 38.07 393.397C37.1856 384.555 37.7543 369.652 45.4878 348.863C60.1386 309.479 42.1114 277.702 41.9272 277.385L42.8166 276.869C42.8632 276.95 47.515 285.052 50.263 297.953C53.8939 315.057 52.5717 332.841 46.4514 349.221C31.8257 388.537 42.6991 407.15 42.8105 407.333L41.9332 407.868Z" fill="#3F3D56"/>
<path d="M36.2044 275.073C39.8944 275.073 42.8858 272.083 42.8858 268.395C42.8858 264.707 39.8944 261.717 36.2044 261.717C32.5143 261.717 29.5229 264.707 29.5229 268.395C29.5229 272.083 32.5143 275.073 36.2044 275.073Z" fill="#ADFF2F"/>
<path d="M57.2767 299.729C60.9668 299.729 63.9582 296.739 63.9582 293.051C63.9582 289.363 60.9668 286.373 57.2767 286.373C53.5866 286.373 50.5952 289.363 50.5952 293.051C50.5952 296.739 53.5866 299.729 57.2767 299.729Z" fill="#ADFF2F"/>
<path d="M42.8858 316.166C46.5759 316.166 49.5673 313.177 49.5673 309.489C49.5673 305.801 46.5759 302.811 42.8858 302.811C39.1957 302.811 36.2043 305.801 36.2043 309.489C36.2043 313.177 39.1957 316.166 42.8858 316.166Z" fill="#ADFF2F"/>
<path d="M60.3604 330.036C64.0505 330.036 67.0419 327.046 67.0419 323.358C67.0419 319.67 64.0505 316.68 60.3604 316.68C56.6703 316.68 53.679 319.67 53.679 323.358C53.679 327.046 56.6703 330.036 60.3604 330.036Z" fill="#ADFF2F"/>
<path d="M37.7462 351.61C41.4363 351.61 44.4277 348.62 44.4277 344.932C44.4277 341.244 41.4363 338.254 37.7462 338.254C34.0562 338.254 31.0648 341.244 31.0648 344.932C31.0648 348.62 34.0562 351.61 37.7462 351.61Z" fill="#ADFF2F"/>
<path d="M45.9696 408.114C45.9696 408.114 39.2881 391.677 59.3326 379.348L45.9696 408.114Z" fill="#3F3D56"/>
<path d="M37.7524 407.816C37.7524 407.816 34.7116 390.336 11.1763 390.486L37.7524 407.816Z" fill="#3F3D56"/>
</svg>
