<svg width="681" height="362" viewBox="0 0 681 362" fill="none" xmlns="http://www.w3.org/2000/svg">
<g clip-path="url(#clip0)">
<g opacity="0.1">
<path opacity="0.1" d="M106.533 28.8008V361.699L78.8501 362C72.9425 362.067 67.0598 361.225 61.4085 359.505V69.3011H61.4543C75.0505 52.611 90.2947 38.6842 106.533 28.8008Z" fill="#A1E042"/>
<path opacity="0.1" d="M678.764 76.5389H55.7581C57.6111 74.0827 59.4945 71.6875 61.4085 69.3533V69.3011H677.214C677.811 71.6658 678.328 74.0784 678.764 76.5389Z" fill="#A1E042"/>
<path opacity="0.1" d="M628.786 12.15V291.079H626.517C625.34 293.548 624.178 295.969 623.031 298.343C622.521 299.395 622.011 300.427 621.514 301.459V9.51099C624.03 10.321 626.454 11.2007 628.786 12.15Z" fill="#A1E042"/>
<path opacity="0.1" d="M455.737 8.92963V357.917L448.465 357.996V10.419C450.878 9.90947 453.298 9.40648 455.737 8.92963Z" fill="#A1E042"/>
<path opacity="0.1" d="M281.132 41.3102V359.812L273.866 359.89V40.964C276.292 41.1208 278.719 41.2122 281.132 41.3102Z" fill="#A1E042"/>
<path opacity="0.1" d="M626.517 291.085C625.34 293.555 624.178 295.976 623.031 298.349H9.48922C8.64777 295.959 7.863 293.537 7.1349 291.085H626.517Z" fill="#A1E042"/>
</g>
<path d="M150.807 173.648H138.382V211.313H150.807V173.648Z" fill="#3F3D56"/>
<path d="M485.206 171.688H472.78V211.535H485.206V171.688Z" fill="#3F3D56"/>
<path d="M564.448 348.596V357.088L465.096 358.002L464.036 358.022L426.276 358.368L425.373 358.381L413.896 358.479H413.556L343.593 359.126L228.748 360.191H228.65L199.45 360.465L199.136 360.471L69.387 361.66V351.862L99.8951 333.571L161.107 333.062L162.415 333.055L162.847 333.049L164.155 333.029L193.545 332.788L194.859 332.781L195.278 332.775L196.586 332.768L206.01 332.69L206.258 332.683L229.507 332.487H229.697L411.11 330.959L415.551 330.926H415.995L419.383 330.893L444.005 330.691L445.313 330.671L446.523 330.658H447.151L454.809 330.599L456.326 330.58L458.36 330.567L464.736 330.508L474.853 330.423L476.161 330.41L478.437 330.397H478.862L527.721 329.979L564.448 348.596Z" fill="#65617D"/>
<path opacity="0.2" d="M564.448 348.596V357.088L465.096 358.002L464.036 358.022L426.276 358.368L425.373 358.381L413.896 358.479H413.556L343.593 359.126L228.748 360.191H228.65L199.45 360.465L199.136 360.471L69.387 361.66V351.862L99.8951 333.571L161.107 333.062L162.415 333.055L162.847 333.049L164.155 333.029L193.545 332.788L194.859 332.781L195.278 332.775L196.586 332.768L206.01 332.69L206.258 332.683L229.507 332.487H229.697L411.11 330.959L415.551 330.926H415.995L419.383 330.893L444.005 330.691L445.313 330.671L446.523 330.658H447.151L454.809 330.599L456.326 330.58L458.36 330.567L464.736 330.508L474.853 330.423L476.161 330.41L478.437 330.397H478.862L527.721 329.979L564.448 348.596Z" fill="black"/>
<path d="M193.643 315.941V331.938C193.643 332.696 193.428 333.438 193.023 334.079C192.618 334.72 192.039 335.232 191.354 335.557C190.844 335.804 190.286 335.938 189.719 335.949L166.895 336.433C166.286 336.447 165.681 336.32 165.129 336.06C164.432 335.741 163.841 335.228 163.427 334.583C163.013 333.938 162.794 333.188 162.795 332.422V315.941H193.643Z" fill="#3F3D56"/>
<path opacity="0.1" d="M193.643 315.941V331.938C193.643 332.696 193.428 333.438 193.023 334.079C192.618 334.72 192.039 335.232 191.354 335.557C190.844 335.804 190.286 335.938 189.719 335.949L166.895 336.433C166.286 336.447 165.681 336.32 165.129 336.06C164.432 335.741 163.841 335.228 163.427 334.583C163.013 333.938 162.794 333.188 162.795 332.422V315.941H193.643Z" fill="black"/>
<path d="M194.951 315.941V331.938C194.951 332.696 194.736 333.438 194.331 334.079C193.926 334.72 193.347 335.232 192.662 335.557C192.152 335.804 191.594 335.938 191.027 335.949L168.203 336.433C167.594 336.447 166.989 336.32 166.437 336.06C165.74 335.741 165.149 335.228 164.735 334.583C164.321 333.938 164.102 333.188 164.103 332.422V315.941H194.951Z" fill="#3F3D56"/>
<path d="M476.161 315.941H445.313V336.517H476.161V315.941Z" fill="#3F3D56"/>
<path opacity="0.1" d="M476.161 315.941H445.313V336.517H476.161V315.941Z" fill="black"/>
<path d="M474.853 315.941H444.005V336.517H474.853V315.941Z" fill="#3F3D56"/>
<path opacity="0.1" d="M150.807 173.641V177.384L138.382 177.064V173.641H150.807Z" fill="black"/>
<path d="M232.594 68.1971L217.663 175.327C217.569 176.011 217.225 176.636 216.698 177.084C216.17 177.531 215.497 177.768 214.805 177.75L95.2584 174.654L92.9891 174.595C92.594 174.586 92.2053 174.493 91.8483 174.324C91.4914 174.154 91.1742 173.912 90.9175 173.611C90.6608 173.311 90.4703 172.96 90.3585 172.582C90.2467 172.203 90.216 171.805 90.2685 171.414L107.03 59.2675C107.138 58.5728 107.503 57.9439 108.053 57.5049C108.602 57.0659 109.297 56.8487 109.999 56.8963L229.978 65.0094C230.365 65.0318 230.743 65.1341 231.089 65.3099C231.434 65.4856 231.739 65.731 231.985 66.0305C232.231 66.3301 232.412 66.6772 232.517 67.0502C232.621 67.4231 232.648 67.8136 232.594 68.1971V68.1971Z" fill="#65617D"/>
<path d="M115.054 64.7742L102.413 163.627L212.281 167.109L225.792 71.7376L115.054 64.7742Z" fill="#1A1A1A"/>
<path d="M381.884 63.2456H255.006C253.08 63.2456 251.52 64.8044 251.52 66.7273V172.988C251.52 174.911 253.08 176.47 255.006 176.47H381.884C383.809 176.47 385.369 174.911 385.369 172.988V66.7273C385.369 64.8044 383.809 63.2456 381.884 63.2456Z" fill="#65617D"/>
<path d="M379.477 70.8688H257.837V165.149H379.477V70.8688Z" fill="#1A1A1A"/>
<path opacity="0.1" d="M485.206 171.682V174.157L472.78 174.412V171.682H485.206Z" fill="black"/>
<path d="M541.271 169.591C541.289 169.862 541.252 170.133 541.162 170.389C541.072 170.645 540.931 170.88 540.748 171.08C540.564 171.281 540.342 171.442 540.095 171.554C539.848 171.666 539.581 171.727 539.309 171.734L416.885 174.262C416.376 174.272 415.882 174.09 415.503 173.752C415.123 173.414 414.885 172.945 414.838 172.439L404.315 63.1673C404.289 62.8962 404.319 62.6226 404.402 62.3632C404.485 62.1038 404.619 61.8639 404.798 61.6581C404.976 61.4522 405.195 61.2847 405.44 61.1658C405.685 61.0468 405.952 60.9788 406.225 60.9659L527.721 54.93L529.029 54.8647C529.549 54.8374 530.059 55.0128 530.452 55.3541C530.845 55.6953 531.089 56.1757 531.135 56.6938L541.271 169.591Z" fill="#65617D"/>
<path d="M411.306 67.3871L522.267 61.9392L531.638 161.23L421.554 163.843L411.306 67.3871Z" fill="#1A1A1A"/>
<path opacity="0.1" d="M541.271 169.591C541.289 169.862 541.252 170.133 541.162 170.389C541.072 170.645 540.931 170.88 540.748 171.08C540.564 171.281 540.342 171.442 540.095 171.554C539.848 171.666 539.581 171.727 539.309 171.734L527.721 54.93L529.029 54.8647C529.549 54.8374 530.059 55.0128 530.452 55.3541C530.845 55.6953 531.089 56.1757 531.135 56.6938L541.271 169.591Z" fill="black"/>
<path opacity="0.1" d="M110.019 56.8897L95.2584 174.654L92.9891 174.595C92.594 174.586 92.2053 174.493 91.8483 174.324C91.4914 174.154 91.1742 173.912 90.9175 173.611C90.6608 173.311 90.4703 172.96 90.3585 172.582C90.2467 172.203 90.216 171.805 90.2685 171.414L107.03 59.2675C107.137 58.568 107.504 57.9346 108.058 57.4937C108.612 57.0529 109.312 56.8372 110.019 56.8897V56.8897Z" fill="black"/>
<path opacity="0.1" d="M150.807 200.156H138.382V211.313H150.807V200.156Z" fill="black"/>
<path opacity="0.1" d="M194.951 315.934V319.181L164.103 320.004V315.934H194.951Z" fill="black"/>
<path d="M249.394 204.043V313.916C249.386 314.586 249.121 315.228 248.652 315.709C248.183 316.189 247.548 316.471 246.877 316.496L121.542 319.828H121.509C120.827 319.819 120.174 319.544 119.692 319.062C119.209 318.58 118.934 317.929 118.926 317.247V204.043C118.934 203.361 119.209 202.71 119.692 202.228C120.174 201.745 120.827 201.471 121.509 201.462H246.811C247.494 201.471 248.146 201.745 248.628 202.228C249.111 202.71 249.386 203.361 249.394 204.043V204.043Z" fill="#65617D"/>
<path opacity="0.1" d="M121.542 201.462V319.828H121.509C120.827 319.819 120.174 319.544 119.692 319.062C119.209 318.58 118.934 317.929 118.926 317.247V204.043C118.934 203.361 119.209 202.71 119.692 202.228C120.174 201.745 120.827 201.471 121.509 201.462H121.542Z" fill="black"/>
<path d="M127.264 208.478H243.345V305.319L127.264 307.932V208.478Z" fill="#D4DFEC"/>
<path opacity="0.1" d="M485.206 200.156H472.78V211.535H485.206V200.156Z" fill="black"/>
<path opacity="0.1" d="M474.853 315.934V320.121L444.005 319.298V315.934H474.853Z" fill="black"/>
<path d="M515.563 204.043V317.247C515.555 317.935 515.275 318.591 514.786 319.074C514.296 319.557 513.636 319.828 512.947 319.828V319.828L387.586 316.496C386.915 316.471 386.28 316.189 385.811 315.709C385.342 315.228 385.076 314.586 385.069 313.916V204.043C385.077 203.361 385.352 202.71 385.835 202.228C386.317 201.745 386.969 201.471 387.652 201.462H512.954C513.641 201.464 514.3 201.736 514.788 202.218C515.276 202.701 515.555 203.356 515.563 204.043V204.043Z" fill="#65617D"/>
<path opacity="0.1" d="M515.563 204.043V317.247C515.555 317.935 515.275 318.591 514.786 319.074C514.296 319.557 513.636 319.828 512.947 319.828V319.828V201.462C513.636 201.462 514.296 201.733 514.786 202.216C515.275 202.699 515.555 203.355 515.563 204.043Z" fill="black"/>
<path d="M507.225 208.478H391.144V305.319L507.225 307.932V208.478Z" fill="#D4DFEC"/>
<path d="M381.825 204.043V313.916C381.817 314.586 381.551 315.228 381.082 315.709C380.614 316.189 379.978 316.471 379.307 316.496L253.972 319.828C253.284 319.828 252.624 319.557 252.134 319.074C251.644 318.591 251.365 317.935 251.356 317.247V204.043C251.365 203.361 251.64 202.71 252.122 202.228C252.605 201.745 253.257 201.471 253.94 201.462H379.242C379.924 201.471 380.576 201.745 381.059 202.228C381.542 202.71 381.816 203.361 381.825 204.043V204.043Z" fill="#65617D"/>
<path d="M259.695 208.478H375.776V305.319L259.695 307.932V208.478Z" fill="#D4DFEC"/>
<path opacity="0.1" d="M564.448 348.596V357.088L465.096 358.002L464.036 358.022L426.276 358.368L425.373 358.381L413.896 358.479H413.556L343.593 359.126L228.748 360.191H228.65L199.45 360.465L199.136 360.472L69.387 361.66V351.862L201.824 350.993H202.138L228.944 350.81H229.069L414.197 349.589H414.386L414.498 349.582H414.805L417.938 349.563H418.892L467.607 349.236L470.485 349.223L471.126 349.216L564.448 348.596Z" fill="black"/>
<path d="M318.657 211.313C337.197 211.313 352.226 196.301 352.226 177.783C352.226 159.265 337.197 144.253 318.657 144.253C300.118 144.253 285.089 159.265 285.089 177.783C285.089 196.301 300.118 211.313 318.657 211.313Z" fill="#FBBEBE"/>
<path d="M352.232 246.372C352.232 246.372 287.162 254.211 293.374 246.372C295.624 243.537 296.245 235.136 296.121 225.567C296.082 222.66 295.977 219.648 295.827 216.65C295.107 202.279 293.374 188.235 293.374 188.235C293.374 188.235 350.27 161.452 343.731 182.682C341.115 191.259 341.971 203.305 343.96 214.612C344.542 217.911 345.215 221.144 345.921 224.214C347.645 231.703 349.752 239.098 352.232 246.372V246.372Z" fill="#FBBEBE"/>
<path opacity="0.1" d="M352.232 246.372C352.232 246.372 287.162 254.211 293.374 246.372C295.624 243.537 296.245 235.136 296.121 225.567C306.042 221.334 318.664 224.489 318.664 224.489C331.953 221.843 340.474 222.359 345.921 224.214C347.645 231.703 349.752 239.099 352.232 246.372V246.372Z" fill="black"/>
<path d="M228.722 360.929V360.38L343.574 359.132L413.549 358.479H413.745L413.674 359.446L413.772 358.479H413.896V358.368L414.792 349.582L415.132 346.257L415.237 345.219L415.328 344.35L419.37 330.887L423.411 317.443L426.812 306.123L432.005 288.825C432.005 288.825 429.062 281.966 427.427 280.007C425.792 278.047 424.157 264.656 424.157 264.656C424.157 264.656 410.201 251.376 404.099 249.847C401.542 249.194 396.494 248.325 391.131 247.234C389.123 246.829 387.063 246.398 385.082 245.928C383.963 245.673 382.865 245.405 381.812 245.137C379.762 244.626 377.743 244.002 375.762 243.269C374.724 242.892 373.736 242.39 372.82 241.773C368.013 238.252 355.967 237.854 355.502 237.854C355.501 237.839 355.501 237.823 355.502 237.808V237.749C355.519 237.475 355.519 237.2 355.502 236.926C355.502 236.665 355.502 236.358 355.443 236.012C355.443 235.907 355.443 235.796 355.398 235.685C355.365 235.45 355.326 235.202 355.267 234.94C355.247 234.824 355.221 234.708 355.188 234.594C354.999 233.807 354.725 233.043 354.371 232.314C354.325 232.21 354.266 232.099 354.214 231.994C353.893 231.391 353.521 230.816 353.102 230.276C353.017 230.165 352.926 230.048 352.827 229.937C352.292 229.306 351.696 228.728 351.049 228.212C350.872 228.075 350.689 227.931 350.499 227.801C350.393 227.715 350.282 227.636 350.166 227.566L349.584 227.187L349.041 226.873C348.564 226.612 348.06 226.357 347.511 226.115C347.341 226.037 347.158 225.965 346.974 225.893C346.791 225.821 346.504 225.71 346.262 225.619H346.222L345.732 225.423C345.359 225.299 344.98 225.188 344.581 225.077L343.973 224.92L343.319 224.77L342.665 224.632C342.011 224.502 341.311 224.384 340.578 224.293L339.833 224.201L339.068 224.123L338.276 224.058L337.152 223.992L335.844 223.947C330.075 223.946 324.323 224.557 318.683 225.769C314.766 224.898 310.753 224.53 306.742 224.672H306.173L305.519 224.711H305.1L304.257 224.789C303.975 224.789 303.688 224.848 303.406 224.887C303.125 224.926 302.831 224.959 302.55 225.005L302.118 225.077C301.693 225.149 301.261 225.227 300.81 225.318C300.666 225.345 300.522 225.377 300.378 225.416C299.81 225.54 299.241 225.691 298.678 225.861C298.397 225.939 298.116 226.03 297.835 226.128C297.691 226.168 297.553 226.22 297.416 226.272L296.997 226.422L296.585 226.586L296.095 226.782C295.846 226.886 295.604 226.997 295.362 227.115C295.225 227.174 295.088 227.239 294.957 227.311C294.826 227.383 294.689 227.441 294.565 227.513C293.086 228.276 291.719 229.239 290.503 230.374L290.17 230.694L289.843 231.028C289.732 231.139 289.627 231.256 289.522 231.374C289.096 231.839 288.699 232.33 288.332 232.844C288.228 232.981 288.129 233.118 288.031 233.262C287.616 233.873 287.241 234.51 286.907 235.169C286.822 235.326 286.743 235.489 286.665 235.646C286.131 236.75 285.693 237.897 285.357 239.075C285.235 239.511 285.123 239.946 285.023 240.382C285.023 240.382 271.178 246.483 259.695 250.899C256.64 252.075 253.763 253.139 251.356 253.943C250.657 254.178 250.003 254.394 249.394 254.596C248.075 255.073 246.702 255.388 245.307 255.537C244.649 255.548 243.993 255.609 243.345 255.72C238.067 256.575 229.023 260.292 228.035 264.022C227.955 264.32 227.933 264.631 227.97 264.937C227.97 264.937 227.97 264.982 227.97 265.009C228.624 269.581 224.046 268.928 224.046 268.928C224.046 268.928 222.411 281.013 220.122 284.279C218.468 286.63 217.336 291.876 217.193 295.834C217.11 297.068 217.207 298.307 217.48 299.512C217.48 299.545 217.48 299.577 217.48 299.604C217.742 300.479 217.114 302.87 216.048 305.933C214.891 309.298 213.203 313.478 211.581 317.424C209.136 323.381 206.834 328.79 206.69 329.979C206.631 330.508 206.461 331.455 206.225 332.677C205.271 337.654 203.152 347.133 202.105 350.967C201.327 353.828 200.196 357.747 199.417 360.439C199.417 360.517 199.372 360.596 199.352 360.667L228.67 360.38V360.929H228.761H228.722Z" fill="#A1E042"/>
<path opacity="0.1" d="M239.421 283.933C239.421 283.933 276.698 303.203 290.105 300.917L239.421 283.933Z" fill="black"/>
<path opacity="0.1" d="M315.283 276.094C315.283 276.094 351.578 287.852 363.677 289.485C375.776 291.118 315.283 276.094 315.283 276.094Z" fill="black"/>
<path opacity="0.1" d="M355.541 238.259C336.576 241.747 300.869 240.996 285.435 240.467C291.092 220.217 318.677 227.102 318.677 227.102C352.821 220.295 355.437 234.418 355.541 238.259Z" fill="black"/>
<path d="M355.541 236.952C336.576 240.441 300.869 239.689 285.435 239.16C291.092 218.91 318.677 225.795 318.677 225.795C352.821 218.989 355.437 233.111 355.541 236.952Z" fill="#A1E042"/>
<path d="M456.215 326.229C456.215 326.229 478.555 322.8 478.993 332.598C479.431 342.397 467.601 349.242 467.601 349.242L456.215 326.229Z" fill="#FBBEBE"/>
<path opacity="0.1" d="M343.96 214.612C342.999 215.041 342.016 215.42 341.017 215.749C333.967 218.179 326.858 220.628 319.435 221.517C312.013 222.405 304.224 221.621 297.75 217.924C297.07 217.54 296.414 217.115 295.788 216.65C295.068 202.279 293.335 188.235 293.335 188.235C293.335 188.235 350.231 161.452 343.691 182.682C341.089 191.259 341.971 203.305 343.96 214.612Z" fill="black"/>
<path d="M309.449 125.374C308.516 125.621 307.538 125.645 306.593 125.447C305.648 125.248 304.763 124.832 304.008 124.231L305.368 126.119C304.567 126.211 303.755 126.128 302.989 125.874C302.223 125.62 301.522 125.202 300.934 124.649C300.811 126.339 300.881 128.038 301.144 129.712C298.893 129.82 296.677 129.126 294.892 127.752C294.857 128.341 295.004 128.927 295.312 129.431C295.621 129.934 296.077 130.331 296.618 130.567C294.357 130.298 292.075 130.859 290.198 132.146C288.321 133.433 286.976 135.359 286.416 137.564L289.83 137.877C287.147 138.449 284.739 139.917 283.002 142.038C281.956 143.345 281.158 145.017 281.616 146.611C282.074 148.205 284.284 149.224 285.487 148.087C283.776 150.128 282.532 152.518 281.843 155.089C281.153 157.661 281.036 160.352 281.498 162.974C281.809 164.091 281.911 165.256 281.799 166.41C281.583 167.488 280.903 168.422 280.563 169.474C279.909 171.381 280.53 173.452 281.112 175.353L284.179 185.426C285.291 189.064 286.396 192.709 287.848 196.23C288.876 198.456 289.75 200.75 290.464 203.096C291.288 206.257 291.321 209.719 293.08 212.482C294.286 214.221 295.897 215.641 297.776 216.617C304.243 220.315 312.059 221.099 319.462 220.21C326.865 219.322 333.967 216.872 341.01 214.442C342.575 213.971 344.077 213.313 345.483 212.482C350.355 209.295 351.441 202.775 352.35 197.034C353.364 190.632 354.718 184.243 357.118 178.221C358.543 174.634 360.388 170.996 360.074 167.155C359.675 162.053 355.633 157.918 354.633 152.901C354.298 151.224 354.313 149.496 354.678 147.826C354.989 146.83 355.162 145.798 355.195 144.756C355.084 142.652 353.357 141.032 351.735 139.68C348.217 136.745 344.585 133.971 340.84 131.358C340.65 130.051 342.429 129.49 343.234 128.458C344.372 127.001 343.194 124.688 341.468 124.009C339.741 123.33 337.806 123.774 336.007 124.225C336.124 123.305 335.941 122.372 335.485 121.565C335.029 120.758 334.324 120.119 333.476 119.744C332.627 119.369 331.68 119.278 330.775 119.484C329.87 119.69 329.056 120.182 328.454 120.887C327.976 119.793 327.213 118.847 326.244 118.148C325.276 117.45 324.137 117.024 322.947 116.915C318.611 116.575 318.526 119.887 315.754 121.71C312.981 123.532 310.692 121.128 308.56 119.378C308.168 120.367 308.044 121.442 308.2 122.495C308.356 123.548 308.787 124.541 309.449 125.374V125.374Z" fill="#3F3D56"/>
<path d="M472.78 345.826C472.78 345.826 472.198 347.211 471.126 349.216C469.503 352.302 467.528 355.189 465.24 357.819L465.063 358.009H464.004L426.243 358.355H425.341L425.229 358.224L417.905 349.543L415.145 346.27L415.034 346.133L414.798 345.859L414.668 345.702L414.498 345.499L409.128 339.137L411.09 330.972L414.432 317.215L414.517 316.881L415.171 314.269L415.636 312.309L417.192 305.92L422.528 283.939L432.011 288.838L442.01 306.476L447.38 315.947H450.322C450.878 315.947 452.154 317.019 453.435 318.253C453.893 318.691 454.351 319.155 454.743 319.56C455.907 320.762 456.83 321.794 456.83 321.794C456.83 321.794 461.597 321.898 462.879 325.648C462.945 325.829 463 326.015 463.042 326.203C463.468 327.677 464.021 329.111 464.697 330.488C465.541 332.324 466.6 334.408 467.673 336.491C469.667 340.313 471.694 343.951 472.44 345.271L472.532 345.434L472.78 345.826Z" fill="#A1E042"/>
<path opacity="0.1" d="M416.603 316.333L416.538 317.267V317.332L416.427 318.835L415.557 330.926L414.504 345.493L414.203 349.595L413.549 358.375V358.486L343.574 359.139L228.742 360.38V360.929H228.65V360.38V360.197L228.945 350.817L229.507 332.487L229.991 316.947L230.037 315.399C230.065 314.464 230.284 313.545 230.68 312.698C231.076 311.851 231.641 311.094 232.34 310.472C233.039 309.85 233.857 309.377 234.746 309.082C235.634 308.787 236.573 308.676 237.505 308.755C240.592 309.017 244.601 309.337 249.394 309.676L251.356 309.82C279.039 311.741 330.2 314.223 381.825 311.127C382.911 311.068 384.003 311.002 385.095 310.924C393.099 310.421 401.098 309.774 409.017 308.964C410.018 308.86 411.03 308.975 411.982 309.303C412.934 309.631 413.802 310.164 414.525 310.863C415.248 311.563 415.809 312.412 416.168 313.351C416.527 314.291 416.676 315.297 416.603 316.3V316.333Z" fill="black"/>
<path d="M228.722 360.929V360.38L343.574 359.132L413.549 358.479H413.746V358.368L414.4 349.589L414.681 345.669L415.753 330.9L416.597 319.207V318.92C416.636 318.381 416.612 317.839 416.525 317.306C416.529 317.284 416.529 317.262 416.525 317.241C416.345 316.138 415.896 315.097 415.217 314.21C414.497 313.287 413.553 312.563 412.476 312.106C411.398 311.649 410.221 311.474 409.057 311.597C401.137 312.407 393.139 313.054 385.134 313.557C384.042 313.635 382.95 313.7 381.864 313.759C330.239 316.823 279.078 314.34 251.396 312.453L249.434 312.309C244.64 311.969 240.631 311.656 237.544 311.388C235.846 311.245 234.155 311.735 232.798 312.764C231.44 313.793 230.513 315.288 230.194 316.96C230.128 317.314 230.088 317.672 230.076 318.031L229.631 332.507L229.023 350.843L228.735 360.223V360.406V360.955L228.722 360.929Z" fill="#3F3D56"/>
<path opacity="0.1" d="M416.8 320.912L415.995 330.926L414.798 345.852L414.498 349.589L413.844 357.957L413.804 358.375V358.486L413.706 359.452L413.778 358.486H413.589L343.613 359.139L228.742 360.38V360.197L229.062 350.817L229.716 332.487L230.135 320.304C230.155 319.611 230.349 318.935 230.699 318.336C231.048 317.736 231.542 317.234 232.136 316.875C232.876 316.422 233.742 316.216 234.608 316.287C235.981 316.398 237.669 316.529 239.637 316.672C242.835 316.908 246.778 317.182 251.369 317.469C259.871 318.005 270.537 318.58 282.76 319.05C316.767 320.357 362.676 320.794 406.284 316.979C408.246 316.81 410.273 316.62 412.254 316.431C413.039 316.353 413.829 316.502 414.53 316.862C414.729 316.961 414.917 317.079 415.093 317.215C415.662 317.627 416.113 318.181 416.401 318.822C416.467 318.949 416.522 319.082 416.564 319.22C416.761 319.761 416.841 320.338 416.8 320.912V320.912Z" fill="black"/>
<path opacity="0.1" d="M194.951 329.855V331.938C194.951 332.696 194.736 333.438 194.331 334.079C193.926 334.72 193.347 335.232 192.662 335.557L166.437 336.06C165.74 335.741 165.149 335.228 164.735 334.583C164.321 333.938 164.102 333.188 164.103 332.422V330.462L194.951 329.855Z" fill="black"/>
<path d="M195.278 336.785L161.107 337.439V331.775L195.278 331.122V336.785Z" fill="#3F3D56"/>
<path opacity="0.1" d="M195.278 336.785L161.107 337.439V331.775L195.278 331.122V336.785Z" fill="black"/>
<path d="M196.586 336.785L162.415 337.439V331.775L196.586 331.122V336.785Z" fill="#3F3D56"/>
<g opacity="0.1">
<path opacity="0.1" d="M309.717 123.232C309.078 122.402 308.654 121.429 308.481 120.397C308.324 121.406 308.418 122.438 308.756 123.402C309.081 123.372 309.402 123.315 309.717 123.232Z" fill="black"/>
<path opacity="0.1" d="M301.412 127.569C301.288 126.768 301.208 125.962 301.17 125.152C301.17 125.956 301.17 126.766 301.17 127.576L301.412 127.569Z" fill="black"/>
<path opacity="0.1" d="M354.711 149.367C354.747 148.785 354.826 148.207 354.946 147.636C355.256 146.643 355.432 145.613 355.47 144.573C355.455 144.339 355.42 144.108 355.365 143.88C355.254 144.481 355.077 145.082 354.946 145.677C354.685 146.888 354.606 148.132 354.711 149.367Z" fill="black"/>
<path opacity="0.1" d="M341.108 129.183L341.821 129.699C342.422 129.264 342.984 128.779 343.502 128.248C343.748 127.909 343.9 127.51 343.944 127.093C343.988 126.675 343.921 126.254 343.75 125.871C343.685 126.02 343.602 126.16 343.502 126.289C342.697 127.321 340.919 127.889 341.108 129.183Z" fill="black"/>
<path opacity="0.1" d="M287.371 135.467C287.132 135.943 286.942 136.442 286.802 136.956C287.825 136.386 288.927 135.97 290.072 135.721L287.371 135.467Z" fill="black"/>
<path opacity="0.1" d="M296.389 128.36C295.96 128.123 295.549 127.855 295.16 127.556C295.143 127.814 295.163 128.074 295.219 128.327C295.609 128.308 296 128.319 296.389 128.36V128.36Z" fill="black"/>
<path opacity="0.1" d="M360.329 166.848C360.06 170.016 358.582 173.067 357.386 176.071C354.986 182.094 353.632 188.483 352.618 194.891C351.709 200.633 350.656 207.152 345.751 210.333C344.35 211.17 342.85 211.828 341.285 212.293C334.235 214.729 327.126 217.173 319.704 218.061C312.281 218.949 304.492 218.172 298.018 214.475C296.14 213.496 294.529 212.077 293.322 210.34C291.576 207.577 291.543 204.115 290.706 200.953C289.992 198.605 289.118 196.309 288.09 194.081C286.645 190.567 285.533 186.895 284.428 183.283C283.403 179.925 282.381 176.566 281.361 173.204C281.025 172.192 280.775 171.154 280.615 170.101C280.36 171.773 280.857 173.524 281.361 175.163C282.381 178.53 283.403 181.889 284.428 185.243C285.533 188.881 286.645 192.526 288.09 196.041C289.118 198.269 289.992 200.565 290.706 202.913C291.53 206.074 291.563 209.536 293.322 212.299C294.529 214.037 296.14 215.456 298.018 216.434C304.492 220.132 312.3 220.909 319.704 220.021C327.107 219.132 334.209 216.689 341.285 214.253C342.85 213.788 344.35 213.129 345.751 212.293C350.624 209.112 351.709 202.592 352.618 196.851C353.632 190.442 354.986 184.054 357.386 178.031C358.811 174.451 360.656 170.813 360.342 166.965C360.342 166.926 360.329 166.887 360.329 166.848Z" fill="black"/>
<path opacity="0.1" d="M282.054 164.32C282.054 164.32 282.054 164.274 282.054 164.248C282.172 163.096 282.07 161.932 281.753 160.819C281.623 160.102 281.538 159.377 281.498 158.65C281.423 160.031 281.508 161.417 281.753 162.778C281.858 163.288 281.976 163.804 282.054 164.32Z" fill="black"/>
<path opacity="0.1" d="M284.049 148.342C284.552 147.498 285.122 146.696 285.756 145.944C284.559 147.088 282.348 146.069 281.884 144.481C281.713 145.123 281.713 145.799 281.884 146.441C282.045 146.92 282.33 147.349 282.71 147.682C283.09 148.016 283.552 148.244 284.049 148.342V148.342Z" fill="black"/>
</g>
<path opacity="0.1" d="M447.386 315.941C447.386 315.941 449.459 323.453 447.386 329.985C445.313 336.518 447.386 315.941 447.386 315.941Z" fill="black"/>
<path opacity="0.1" d="M456.215 323.603C456.215 323.603 457.085 333.14 455.123 334.832C453.161 336.524 456.215 323.603 456.215 323.603Z" fill="black"/>
<path d="M130.135 223.966L196.586 223.313" stroke="#A1E042" stroke-width="2" stroke-miterlimit="10"/>
<path d="M130.135 232.112L196.586 231.465" stroke="#A1E042" stroke-width="2" stroke-miterlimit="10"/>
<path d="M130.135 240.264L196.586 239.611" stroke="#A1E042" stroke-width="2" stroke-miterlimit="10"/>
</g>
<defs>
<clipPath id="clip0">
<rect width="681" height="362" fill="white"/>
</clipPath>
</defs>
</svg>
